# xmcd CD database file
#
# Track frame offsets:
#	150
#	17791
#	30513
#	55862
#	81140
#	91961
#	122431
#	137184
#	161723
#	197855
#	207740
#	225840
#	244412
#	257802
#	272314
#
# Disc length: 3858 seconds
#
# Revision: 0
# Processed by: cddbd v1.5PL3 Copyright (c) Steve Scherf et al.
# Submitted via: CDex 1.51
#
DISCID=c90f100f
DTITLE=Steven Halpern - Lullaby Suite
DYEAR=1994
DGENRE=New Age
TTITLE0=Brahms' Lullaby Part I
TTITLE1=Brahms' Lullaby Part II
TTITLE2=Twinkle, Twinkle Little Star
TTITLE3=Rockabye Baby
TTITLE4=Lullaby Part III
TTITLE5=Lullaby and Variations
TTITLE6=Frere Jacques
TTITLE7=Birthday Song
TTITLE8=My Bonnie
TTITLE9=Alphabet Song
TTITLE10=Frere Jacques (duet)
TTITLE11=Mary Had a Little Lamb
TTITLE12=Three Blind Mice
TTITLE13=Beautiful Dreamer
TTITLE14=Brahms' Lullaby (reprise)
EXTD=YEAR: 1994
EXTT0=
EXTT1=
EXTT2=
EXTT3=
EXTT4=
EXTT5=
EXTT6=
EXTT7=
EXTT8=
EXTT9=
EXTT10=
EXTT11=
EXTT12=
EXTT13=
EXTT14=
PLAYORDER=
